<svg xmlns="http://www.w3.org/2000/svg" xmlns:xlink="http://www.w3.org/1999/xlink"><defs><symbol fill="none" viewBox="0 0 20 20" id="icon-arrow-up"><path d="M17.342 14.912a.97.97 0 01-1.378.014l-5.822-5.751a.2.2 0 00-.283.001l-5.706 5.74A1.009 1.009 0 012.714 13.5l6.57-6.752a1 1 0 011.433 0l6.625 6.81a.97.97 0 010 1.353z" fill="currentColor" /></symbol><symbol fill="none" viewBox="0 0 28 29" id="icon-cart"><path fill-rule="evenodd" clip-rule="evenodd" d="M11.221 17.466a1 1 0 001.1.653l12.766-2.036a1 1 0 00.824-.792l1.354-6.792a1 1 0 00-.964-1.196l-17.36-.28a1 1 0 00-.958 1.335l3.238 9.108zM11.826 25.36a2.326 2.326 0 100-4.653 2.326 2.326 0 000 4.652zM23.457 25.36a2.326 2.326 0 100-4.653 2.326 2.326 0 000 4.652zM5 4c1.933 0 3.5-.224 3.5-.5S6.933 3 5 3s-3.5.224-3.5.5S3.067 4 5 4z" fill="currentColor" /><path fill-rule="evenodd" clip-rule="evenodd" d="M2.454 2.651C3.118 2.557 4.017 2.5 5 2.5c.983 0 1.882.057 2.546.151.327.047.619.106.839.18.107.037.227.086.33.158.085.06.285.224.285.511 0 .287-.2.451-.285.51a1.317 1.317 0 01-.33.158c-.22.075-.512.134-.84.18C6.883 4.444 5.984 4.5 5 4.5c-.983 0-1.882-.057-2.546-.151a4.934 4.934 0 01-.839-.18 1.317 1.317 0 01-.33-.158C1.2 3.95 1 3.787 1 3.5c0-.287.2-.451.285-.51.103-.073.223-.122.33-.158.22-.075.512-.134.84-.18z" fill="currentColor" /></symbol><symbol fill="none" viewBox="0 0 29 29" id="icon-catalog"><g clip-path="url(#icon-catalog_clip0_13_122)"><path fill="#F6F6FA" d="M.5.333h28v28H.5z" /><path fill-rule="evenodd" clip-rule="evenodd" d="M20.296 17.833l2.889 2.889c.036.036.072.073.106.111H27a1.5 1.5 0 100-3h-6.704zm-.168-9a10.976 10.976 0 00-1.762-3H27a1.5 1.5 0 110 3h-6.872zm.745 3.987c0-.333-.014-.662-.043-.987H27a1.5 1.5 0 110 3h-6.31c.12-.653.183-1.326.183-2.013z" fill="currentColor" /><path fill-rule="evenodd" clip-rule="evenodd" d="M4.4 12.82a5.487 5.487 0 1110.973 0 5.487 5.487 0 01-10.973 0zm-3.5 0a8.987 8.987 0 1117.142 3.78c-.326.702-.255 1.553.293 2.1l3.435 3.436a1.58 1.58 0 01-2.234 2.235l-3.324-3.324c-.57-.57-1.466-.623-2.182-.25A8.987 8.987 0 01.9 12.82z" fill="currentColor" /></g><defs></defs></symbol><clipPath id="icon-catalog_clip0_13_122"><path fill="#fff" transform="translate(.5 .333)" d="M0 0h28v28H0z" /></clipPath><symbol fill="none" viewBox="0 0 24 25" id="icon-close"><path fill-rule="evenodd" clip-rule="evenodd" d="M4.93 18.157a1 1 0 101.414 1.414L12 13.914l5.657 5.657a1 1 0 001.414-1.414L13.415 12.5l5.657-5.657a1 1 0 10-1.415-1.414l-5.656 5.657-5.657-5.657A1 1 0 104.93 6.843l5.657 5.657-5.657 5.657z" fill="currentColor" /></symbol><symbol fill="none" viewBox="0 0 29 29" id="icon-favorites"><path d="M14.98 23.75a.996.996 0 01-1.322 0C8.252 18.952 3.5 14.28 3.5 10.311c0-3.37 2.618-5.979 6-5.979 1.658 0 3.317.696 4.507 1.853a.582.582 0 00.804 0c1.19-1.157 2.849-1.853 4.507-1.853 3.382 0 6 2.609 6 5.979 0 3.969-4.92 8.641-10.339 13.438z" fill="currentColor" /></symbol><symbol fill="none" viewBox="0 0 20 20" id="icon-info"><circle cx="10" cy="10" r="7.5" stroke="#A0A0A4" /><path d="M9.889 7.587a.907.907 0 01-.64-.23.755.755 0 01-.249-.57.72.72 0 01.249-.567c.166-.147.38-.22.64-.22.263 0 .477.073.64.22a.72.72 0 01.248.566.74.74 0 01-.249.576c-.162.15-.376.225-.64.225zm.761 5.79H9.107v-5h1.543v5z" fill="#A0A0A4" /></symbol><symbol fill="none" viewBox="0 0 20 20" id="icon-like"><path fill-rule="evenodd" clip-rule="evenodd" d="M3.034 4.059c-.768.693-1.267 1.774-1.04 3.37.23 1.599 1.27 3.256 2.81 4.919C6.26 13.918 8.11 15.444 10 16.874c1.89-1.43 3.741-2.956 5.196-4.526 1.539-1.663 2.58-3.32 2.809-4.919.228-1.596-.271-2.677-1.04-3.37C16.178 3.346 15.056 3 14 3c-1.868 0-2.908 1.085-3.482 1.684-.06.063-.115.12-.165.17a.5.5 0 01-.707 0 11.53 11.53 0 01-.164-.17C8.908 4.084 7.868 3 6 3c-1.055 0-2.177.346-2.966 1.059zm-.67-.743C3.374 2.404 4.752 2 6 2c2.071 0 3.345 1.113 4 1.779C10.655 3.113 11.929 2 14 2c1.248 0 2.626.404 3.636 1.316 1.031.932 1.63 2.351 1.359 4.255-.272 1.901-1.48 3.744-3.066 5.456-1.594 1.722-3.623 3.368-5.629 4.873a.5.5 0 01-.6 0c-2.006-1.505-4.036-3.151-5.63-4.873-1.585-1.712-2.793-3.555-3.065-5.456-.272-1.904.327-3.323 1.359-4.255z" fill="currentColor" /></symbol><symbol fill="none" viewBox="0 0 28 29" id="icon-main"><path fill-rule="evenodd" clip-rule="evenodd" d="M3.392 13.764c-.957.94-.29 2.569 1.052 2.569H5v6a2 2 0 002 2h4.25a.5.5 0 00.5-.5v-3.09a2 2 0 012-2h.5a2 2 0 012 2v3.09a.5.5 0 00.5.5H21a2 2 0 002-2v-6h.379c1.336 0 2.005-1.616 1.06-2.56l-9.738-9.739a1 1 0 00-1.408-.006l-9.9 9.736z" fill="currentColor" /></symbol><symbol fill="none" viewBox="0 0 20 20" id="icon-pencil"><path fill-rule="evenodd" clip-rule="evenodd" d="M13.159 3.06l3.781 3.782L6.727 17.055l-3.992.798a.5.5 0 01-.588-.588l.798-3.992L13.16 3.06zM4.177 13.932l8.982-8.981 1.89 1.89-8.981 8.982-2.364.473.473-2.364z" fill="currentColor" /><path fill-rule="evenodd" clip-rule="evenodd" d="M15.995 7.787l-3.782-3.781 1.418-1.419a2.005 2.005 0 012.837 0l.945.946a2.006 2.006 0 010 2.836l-1.418 1.418zm.473-2.363a.668.668 0 000-.946l-.946-.945a.668.668 0 00-.945 0l-.473.473 1.89 1.89.474-.472z" fill="currentColor" /></symbol><symbol fill="none" viewBox="0 0 28 29" id="icon-profile"><path fill-rule="evenodd" clip-rule="evenodd" d="M18.52 9.289c0 2.77-2.084 4.918-4.514 4.918s-4.515-2.148-4.515-4.895C9.48 6.601 11.588 4.5 14.006 4.5c2.418 0 4.515 2.054 4.515 4.789zM4.5 22.998c0 .986.643 1.502 2.442 1.502h14.116c1.799 0 2.442-.516 2.442-1.502 0-2.864-3.657-6.808-9.494-6.808-5.849 0-9.506 3.944-9.506 6.808z" fill="currentColor" /></symbol><symbol fill="none" viewBox="0 0 24 24" id="icon-search"><path fill-rule="evenodd" clip-rule="evenodd" d="M9.934 3.703a6.313 6.313 0 100 12.625 6.313 6.313 0 000-12.625zm-7.996 6.312a7.996 7.996 0 1115.992 0 7.996 7.996 0 01-15.992 0z" fill="currentColor" /><path fill-rule="evenodd" clip-rule="evenodd" d="M13.96 14.899a.842.842 0 011.19-.016l6.046 5.892a.842.842 0 11-1.175 1.206l-6.045-5.892a.842.842 0 01-.016-1.19z" fill="currentColor" /></symbol><symbol fill="none" viewBox="0 0 12 12" id="icon-star"><path fill-rule="evenodd" clip-rule="evenodd" d="M6.698 1.15a.755.755 0 00-1.396 0h1.396zm-1.396 0L4.147 3.91l-2.955.256c-.673.059-.93.894-.432 1.329l2.245 1.964-.673 2.923c-.148.642.546 1.175 1.13.82L6 9.656l2.538 1.545c.585.358 1.278-.178 1.13-.818l-.673-2.924 2.245-1.964c.498-.435.24-1.27-.432-1.328L7.853 3.91 6.698 1.15" fill="currentColor" /></symbol><symbol fill="none" viewBox="0 0 20 20" id="icon-trash"><path fill-rule="evenodd" clip-rule="evenodd" d="M2.5 5a.5.5 0 01.5-.5h14a.5.5 0 010 1H3a.5.5 0 01-.5-.5z" fill="currentColor" /><path fill-rule="evenodd" clip-rule="evenodd" d="M3.458 4.5h13.048l-.865 11.193A2.5 2.5 0 0113.15 18H6.846a2.5 2.5 0 01-2.492-2.3L3.458 4.5zm1.084 1l.81 10.12A1.5 1.5 0 006.845 17h6.303a1.5 1.5 0 001.495-1.384L15.426 5.5H4.542z" fill="currentColor" /><path fill-rule="evenodd" clip-rule="evenodd" d="M13 5.5H7V3.469C7 2.658 7.658 2 8.469 2h3.062C12.342 2 13 2.658 13 3.469V5.5zM8.469 3A.469.469 0 008 3.469V4.5h4V3.469A.469.469 0 0011.531 3H8.47z" fill="currentColor" /></symbol></defs></svg>